<?xml version="1.0" encoding="UTF-8"?>
<svg xmlns="http://www.w3.org/2000/svg" xmlns:xlink="http://www.w3.org/1999/xlink" width="120px" height="80px" viewBox="0 0 120 80" version="1.1">
<g id="surface1">
<path style=" stroke:none;fill-rule:nonzero;fill:rgb(14.509804%,18.431373%,24.313725%);fill-opacity:1;" d="M 40.539062 32.703125 C 40.539062 33.800781 40.660156 34.691406 40.867188 35.34375 C 41.105469 35.996094 41.402344 36.707031 41.816406 37.480469 C 41.964844 37.714844 42.023438 37.953125 42.023438 38.160156 C 42.023438 38.457031 41.84375 38.753906 41.460938 39.050781 L 39.589844 40.296875 C 39.324219 40.472656 39.058594 40.5625 38.820312 40.5625 C 38.523438 40.5625 38.226562 40.414062 37.929688 40.148438 C 37.515625 39.703125 37.160156 39.230469 36.863281 38.753906 C 36.566406 38.25 36.269531 37.6875 35.941406 37.003906 C 33.628906 39.734375 30.722656 41.097656 27.222656 41.097656 C 24.730469 41.097656 22.742188 40.386719 21.289062 38.960938 C 19.835938 37.539062 19.09375 35.640625 19.09375 33.265625 C 19.09375 30.746094 19.984375 28.699219 21.792969 27.15625 C 23.601562 25.613281 26.003906 24.84375 29.0625 24.84375 C 30.070312 24.84375 31.109375 24.929688 32.207031 25.078125 C 33.300781 25.226562 34.429688 25.464844 35.617188 25.730469 L 35.617188 23.566406 C 35.617188 21.3125 35.140625 19.742188 34.222656 18.820312 C 33.273438 17.902344 31.671875 17.457031 29.386719 17.457031 C 28.347656 17.457031 27.28125 17.574219 26.183594 17.84375 C 25.085938 18.109375 24.019531 18.433594 22.980469 18.851562 C 22.503906 19.058594 22.148438 19.175781 21.941406 19.234375 C 21.734375 19.296875 21.585938 19.324219 21.46875 19.324219 C 21.050781 19.324219 20.84375 19.027344 20.84375 18.40625 L 20.84375 16.953125 C 20.84375 16.476562 20.902344 16.121094 21.050781 15.914062 C 21.199219 15.707031 21.46875 15.5 21.882812 15.292969 C 22.921875 14.757812 24.167969 14.3125 25.621094 13.957031 C 27.074219 13.570312 28.617188 13.394531 30.246094 13.394531 C 33.777344 13.394531 36.359375 14.195312 38.019531 15.796875 C 39.652344 17.398438 40.480469 19.828125 40.480469 23.09375 L 40.480469 32.703125 Z M 28.496094 37.210938 C 29.476562 37.210938 30.484375 37.035156 31.550781 36.679688 C 32.621094 36.320312 33.570312 35.667969 34.371094 34.78125 C 34.84375 34.214844 35.199219 33.59375 35.378906 32.882812 C 35.558594 32.167969 35.675781 31.308594 35.675781 30.300781 L 35.675781 29.054688 C 34.816406 28.847656 33.894531 28.667969 32.945312 28.550781 C 31.996094 28.429688 31.078125 28.371094 30.160156 28.371094 C 28.171875 28.371094 26.71875 28.757812 25.738281 29.558594 C 24.761719 30.359375 24.285156 31.488281 24.285156 32.96875 C 24.285156 34.363281 24.640625 35.402344 25.382812 36.113281 C 26.09375 36.855469 27.132812 37.210938 28.496094 37.210938 Z M 52.316406 40.414062 C 51.78125 40.414062 51.425781 40.328125 51.1875 40.117188 C 50.953125 39.941406 50.746094 39.527344 50.566406 38.960938 L 43.59375 16.03125 C 43.417969 15.4375 43.328125 15.054688 43.328125 14.847656 C 43.328125 14.371094 43.566406 14.105469 44.039062 14.105469 L 46.949219 14.105469 C 47.511719 14.105469 47.898438 14.195312 48.105469 14.402344 C 48.339844 14.578125 48.519531 14.996094 48.699219 15.558594 L 53.679688 35.195312 L 58.308594 15.558594 C 58.457031 14.964844 58.632812 14.578125 58.871094 14.402344 C 59.109375 14.222656 59.523438 14.105469 60.058594 14.105469 L 62.429688 14.105469 C 62.996094 14.105469 63.378906 14.195312 63.617188 14.402344 C 63.855469 14.578125 64.0625 14.996094 64.179688 15.558594 L 68.867188 35.433594 L 74 15.558594 C 74.175781 14.964844 74.386719 14.578125 74.59375 14.402344 C 74.832031 14.222656 75.214844 14.105469 75.75 14.105469 L 78.507812 14.105469 C 78.984375 14.105469 79.25 14.34375 79.25 14.847656 C 79.25 14.996094 79.21875 15.144531 79.191406 15.320312 C 79.160156 15.5 79.101562 15.734375 78.984375 16.0625 L 71.835938 38.992188 C 71.65625 39.585938 71.449219 39.96875 71.210938 40.148438 C 70.972656 40.328125 70.589844 40.445312 70.085938 40.445312 L 67.535156 40.445312 C 66.96875 40.445312 66.585938 40.355469 66.347656 40.148438 C 66.109375 39.941406 65.902344 39.554688 65.78125 38.960938 L 61.183594 19.828125 L 56.617188 38.933594 C 56.46875 39.527344 56.292969 39.910156 56.054688 40.117188 C 55.816406 40.328125 55.402344 40.414062 54.867188 40.414062 Z M 90.433594 41.214844 C 88.890625 41.214844 87.347656 41.039062 85.863281 40.683594 C 84.382812 40.328125 83.226562 39.941406 82.453125 39.496094 C 81.980469 39.230469 81.652344 38.933594 81.535156 38.664062 C 81.414062 38.398438 81.355469 38.101562 81.355469 37.835938 L 81.355469 36.320312 C 81.355469 35.699219 81.59375 35.402344 82.039062 35.402344 C 82.214844 35.402344 82.394531 35.433594 82.570312 35.492188 C 82.75 35.550781 83.015625 35.667969 83.3125 35.789062 C 84.324219 36.234375 85.417969 36.589844 86.578125 36.824219 C 87.761719 37.0625 88.921875 37.183594 90.105469 37.183594 C 91.976562 37.183594 93.429688 36.855469 94.4375 36.203125 C 95.445312 35.550781 95.980469 34.601562 95.980469 33.386719 C 95.980469 32.554688 95.710938 31.871094 95.179688 31.308594 C 94.644531 30.746094 93.636719 30.242188 92.183594 29.765625 L 87.882812 28.429688 C 85.714844 27.75 84.113281 26.742188 83.136719 25.40625 C 82.15625 24.101562 81.652344 22.648438 81.652344 21.105469 C 81.652344 19.859375 81.917969 18.761719 82.453125 17.8125 C 82.988281 16.863281 83.699219 16.03125 84.589844 15.378906 C 85.480469 14.699219 86.488281 14.195312 87.675781 13.835938 C 88.859375 13.480469 90.105469 13.332031 91.410156 13.332031 C 92.0625 13.332031 92.746094 13.363281 93.398438 13.453125 C 94.082031 13.539062 94.703125 13.660156 95.328125 13.777344 C 95.921875 13.925781 96.484375 14.074219 97.019531 14.253906 C 97.550781 14.429688 97.96875 14.609375 98.265625 14.785156 C 98.679688 15.023438 98.976562 15.261719 99.152344 15.527344 C 99.332031 15.765625 99.421875 16.09375 99.421875 16.507812 L 99.421875 17.902344 C 99.421875 18.523438 99.183594 18.851562 98.738281 18.851562 C 98.5 18.851562 98.117188 18.730469 97.609375 18.496094 C 95.921875 17.722656 94.023438 17.335938 91.914062 17.335938 C 90.226562 17.335938 88.890625 17.605469 87.972656 18.167969 C 87.050781 18.730469 86.578125 19.59375 86.578125 20.808594 C 86.578125 21.640625 86.875 22.351562 87.464844 22.914062 C 88.058594 23.476562 89.15625 24.042969 90.730469 24.546875 L 94.941406 25.878906 C 97.078125 26.5625 98.621094 27.511719 99.539062 28.726562 C 100.457031 29.945312 100.902344 31.339844 100.902344 32.882812 C 100.902344 34.15625 100.636719 35.3125 100.132812 36.320312 C 99.597656 37.332031 98.886719 38.21875 97.96875 38.933594 C 97.046875 39.671875 95.949219 40.207031 94.675781 40.59375 C 93.339844 41.007812 91.945312 41.214844 90.433594 41.214844 Z M 90.433594 41.214844 "/>
<path style=" stroke:none;fill-rule:evenodd;fill:rgb(100%,60%,0%);fill-opacity:1;" d="M 96.039062 55.632812 C 86.28125 62.839844 72.101562 66.667969 59.910156 66.667969 C 42.824219 66.667969 27.429688 60.347656 15.800781 49.847656 C 14.882812 49.015625 15.710938 47.890625 16.808594 48.542969 C 29.386719 55.839844 44.902344 60.257812 60.949219 60.257812 C 71.773438 60.257812 83.667969 58.003906 94.613281 53.378906 C 96.246094 52.636719 97.640625 54.445312 96.039062 55.632812 Z M 96.039062 55.632812 "/>
<path style=" stroke:none;fill-rule:evenodd;fill:rgb(100%,60%,0%);fill-opacity:1;" d="M 100.101562 51.003906 C 98.855469 49.402344 91.855469 50.234375 88.683594 50.621094 C 87.734375 50.738281 87.585938 49.90625 88.445312 49.285156 C 94.023438 45.367188 103.1875 46.496094 104.253906 47.800781 C 105.324219 49.136719 103.957031 58.300781 98.738281 62.691406 C 97.9375 63.375 97.167969 63.019531 97.523438 62.128906 C 98.707031 59.191406 101.347656 52.578125 100.101562 51.003906 Z M 100.101562 51.003906 "/>
</g>
</svg>
